<?xml version="1.0" encoding="UTF-8"?>
<svg aria-hidden="true" style="position:absolute;width:0;height:0;overflow:hidden" xmlns="http://www.w3.org/2000/svg">
  <defs>
    <!-- Grundstil: 24x24, Strich=2, runde Ecken (clean, UI-tauglich) -->
    <symbol id="home" viewBox="0 0 24 24">
      <path d="M3 10.5L12 3l9 7.5V21a1 1 0 0 1-1 1h-5v-6H9v6H4a1 1 0 0 1-1-1v-10.5z" fill="none" stroke="currentColor" stroke-width="2" stroke-linejoin="round"/>
    </symbol>
    <symbol id="dashboard" viewBox="0 0 24 24">
      <path d="M3 3h8v8H3zM13 3h8v5h-8zM13 10h8v11h-8zM3 13h8v8H3z" fill="none" stroke="currentColor" stroke-width="2" stroke-linejoin="round"/>
    </symbol>
    <symbol id="admin" viewBox="0 0 24 24">
      <path d="M12 2l3 3-3 3-3-3 3-3zm6 7l3 3-3 3-3-3 3-3zM6 9l3 3-3 3-3-3 3-3zm6 6l3 3-3 3-3-3 3-3z" fill="none" stroke="currentColor" stroke-width="2" stroke-linejoin="round"/>
    </symbol>
    <symbol id="shop" viewBox="0 0 24 24">
      <path d="M3 10l2-6h14l2 6M4 10h16v10H4zM9 14h6" fill="none" stroke="currentColor" stroke-width="2" stroke-linejoin="round"/>
    </symbol>
    <symbol id="check" viewBox="0 0 24 24">
      <path d="M4 5h12M4 9h12M4 13h8M18 14l-3 3-2-2" fill="none" stroke="currentColor" stroke-width="2" stroke-linecap="round" stroke-linejoin="round"/>
    </symbol>
    <symbol id="history" viewBox="0 0 24 24">
      <path d="M4 4v5h5M12 8v5l4 2M12 3a9 9 0 1 1-9 9" fill="none" stroke="currentColor" stroke-width="2" stroke-linecap="round" stroke-linejoin="round"/>
    </symbol>
    <symbol id="user" viewBox="0 0 24 24">
      <path d="M12 12a5 5 0 1 0-5-5 5 5 0 0 0 5 5Zm-8 9a8 8 0 1 1 16 0Z" fill="none" stroke="currentColor" stroke-width="2" stroke-linejoin="round"/>
    </symbol>
    <symbol id="logout" viewBox="0 0 24 24">
      <path d="M16 17l5-5-5-5M21 12H9M12 21H5a1 1 0 0 1-1-1V4a1 1 0 0 1 1-1h7" fill="none" stroke="currentColor" stroke-width="2" stroke-linecap="round"/>
    </symbol>
    <symbol id="filter" viewBox="0 0 24 24">
      <path d="M4 6h16M7 12h10M10 18h4" fill="none" stroke="currentColor" stroke-width="2" stroke-linecap="round"/>
    </symbol>
    <symbol id="search" viewBox="0 0 24 24">
      <path d="M11 3a8 8 0 1 1 0 16 8 8 0 0 1 0-16Zm10 18-4.3-4.3" fill="none" stroke="currentColor" stroke-width="2" stroke-linecap="round"/>
    </symbol>
    <symbol id="plus" viewBox="0 0 24 24">
      <path d="M12 5v14M5 12h14" fill="none" stroke="currentColor" stroke-width="2" stroke-linecap="round"/>
    </symbol>
    <symbol id="edit" viewBox="0 0 24 24">
      <path d="M4 20l5-.9 9.2-9.2a2 2 0 0 0 0-2.8l-1.3-1.3a2 2 0 0 0-2.8 0L5 15.9 4 20z" fill="none" stroke="currentColor" stroke-width="2" stroke-linejoin="round"/>
    </symbol>
    <symbol id="delete" viewBox="0 0 24 24">
      <path d="M3 6h18M8 6V4h8v2M6 6l1 14h10l1-14" fill="none" stroke="currentColor" stroke-width="2" stroke-linejoin="round"/>
    </symbol>
    <symbol id="save" viewBox="0 0 24 24">
      <path d="M4 4h12l4 4v12H4zM8 4v6h6V4" fill="none" stroke="currentColor" stroke-width="2" stroke-linejoin="round"/>
    </symbol>
    <symbol id="upload" viewBox="0 0 24 24">
      <path d="M12 16V4M7 9l5-5 5 5M5 20h14" fill="none" stroke="currentColor" stroke-width="2" stroke-linecap="round"/>
    </symbol>
    <symbol id="warning" viewBox="0 0 24 24">
      <path d="M12 3l10 18H2L12 3Zm0 6v5m0 4h.01" fill="none" stroke="currentColor" stroke-width="2" stroke-linecap="round"/>
    </symbol>
    <symbol id="ok" viewBox="0 0 24 24">
      <path d="M20 6L9 17l-5-5" fill="none" stroke="currentColor" stroke-width="2" stroke-linecap="round"/>
    </symbol>
    <symbol id="calendar" viewBox="0 0 24 24">
      <path d="M7 3v4M17 3v4M4 7h16v14H4zM8 12h3" fill="none" stroke="currentColor" stroke-width="2" stroke-linecap="round"/>
    </symbol>
    <symbol id="clock" viewBox="0 0 24 24">
      <path d="M12 3a9 9 0 1 1 0 18 9 9 0 0 1 0-18Zm0 4v6l4 2" fill="none" stroke="currentColor" stroke-width="2" stroke-linecap="round"/>
    </symbol>
    <symbol id="thermometer" viewBox="0 0 24 24">
      <path d="M10 14V5a2 2 0 1 1 4 0v9a5 5 0 1 1-4 0z" fill="none" stroke="currentColor" stroke-width="2"/>
    </symbol>
    <symbol id="fridge" viewBox="0 0 24 24">
      <path d="M7 2h10v20H7zM7 10h10M9 6h2M9 14h2" fill="none" stroke="currentColor" stroke-width="2"/>
    </symbol>
    <symbol id="oven" viewBox="0 0 24 24">
      <path d="M4 4h16v16H4zM6 8h12M9 12h6v6H9z" fill="none" stroke="currentColor" stroke-width="2"/>
    </symbol>
    <symbol id="dishwasher" viewBox="0 0 24 24">
      <path d="M4 4h16v16H4zM8 9h8M8 14a2 2 0 1 0 4 0 2 2 0 1 0-4 0m4 0a2 2 0 1 0 4 0" fill="none" stroke="currentColor" stroke-width="2"/>
    </symbol>
    <symbol id="chart" viewBox="0 0 24 24">
      <path d="M4 20V4M4 20h16M8 16V9M12 20V6M16 20v-7" fill="none" stroke="currentColor" stroke-width="2" stroke-linecap="round"/>
    </symbol>
    <symbol id="list" viewBox="0 0 24 24">
      <path d="M8 6h12M8 12h12M8 18h12M4 6h.01M4 12h.01M4 18h.01" fill="none" stroke="currentColor" stroke-width="2" stroke-linecap="round"/>
    </symbol>
    <symbol id="settings" viewBox="0 0 24 24">
      <path d="M12 8a4 4 0 1 1 0 8 4 4 0 0 1 0-8Zm8 4h-2.1a6.9 6.9 0 0 0-.7-1.7l1.5-1.5-2.1-2.1-1.5 1.5a6.9 6.9 0 0 0-1.7-.7V4h-3v2.1a6.9 6.9 0 0 0-1.7.7L6.2 5.3 4.1 7.4l1.5 1.5c-.3.5-.5 1.1-.7 1.7H3v3h2.1c.2.6.4 1.2.7 1.7l-1.5 1.5 2.1 2.1 1.5-1.5c.5.3 1.1.5 1.7.7V21h3v-2.1c.6-.2 1.2-.4 1.7-.7l1.5 1.5 2.1-2.1-1.5-1.5c.3-.5.5-1.1.7-1.7H20v-3z" fill="none" stroke="currentColor" stroke-width="2" stroke-linejoin="round"/>
    </symbol>
  </defs>
</svg>
